<svg xmlns="http://www.w3.org/2000/svg" enable-background="new 0 0 512 512" viewBox="0 0 512 512" id="Penguin"><path fill="#ffffff" d="M157,105L157,105c0-54.7,44.3-99,99-99h0c54.7,0,99,44.3,99,99v0c0,33,11.1,65.1,31.6,91l0,0c32.7,41.4,50.4,92.6,50.4,145.4v5.8c0,27.2-16.1,51.8-41,62.8l0,0v0c0,40.9-33.1,74-74,74H190c-40.9,0-74-33.1-74-74v0l0,0c-24.9-10.9-41-35.6-41-62.8v-5.8c0-52.8,17.8-104,50.4-145.4l0,0C145.9,170.1,157,138,157,105z" class="colorcde9fe svgShape"></path><path fill="#fcd49c" d="M394.5,206.7l-21.9,120.9C362.4,384,313.3,425,256,425h0c-57.3,0-106.4-41-116.6-97.4l-21.9-120.9c-0.5,0.7-1,1.4-1.5,2.2V410l0,0c0,40.9,33.1,74,74,74h132c40.9,0,74-33.1,74-74l0,0V208.9C395.5,208.2,395,207.4,394.5,206.7z" class="color9cd3fc svgShape"></path><rect width="10" height="20" x="211" y="97" fill="#707070" class="color3179af svgShape"></rect><rect width="10" height="20" x="291" y="97" fill="#707070" class="color3179af svgShape"></rect><path fill="#707070" d="M157 104L157 104l18.5-33.7c5.8-10.7 17-17.3 29.2-17.3h0c18.4 0 33.3 14.9 33.3 33.3V135h36V86.3c0-18.4 14.9-33.3 33.3-33.3h0c12.2 0 23.3 6.6 29.2 17.3L355 104v0c0-54.7-44.3-99-99-99h0C201.3 5 157 49.3 157 104zM355 172v-67c0 33 11.1 65.1 31.6 91l0 0c32.7 41.4 50.4 92.6 50.4 145.4v5.8c0 27.2-16.1 51.8-41 62.8h0v0c0-78.1-12.9-155.7-38.2-229.7L355 172zM157 172v-67c0 33-11.1 65.1-31.6 91l0 0C92.8 237.5 75 288.7 75 341.4v5.8c0 27.2 16.1 51.8 41 62.8h0v0c0-78.1 12.9-155.7 38.2-229.7L157 172z" class="color3179af svgShape"></path><path fill="#ffbf66" d="M327.6 459L327.6 459c-18 0-32.6 14.6-32.6 32.6V507h78l-16.8-30.9C350.5 465.6 339.5 459 327.6 459zM184.4 459L184.4 459c18 0 32.6 14.6 32.6 32.6V507h-78l16.8-30.9C161.5 465.6 172.5 459 184.4 459z" class="colorf8d707 svgShape"></path><path fill="#fcd49c" d="M249.3,183.1L238,135l0,0c9.9-9.9,26.1-9.9,36,0l0,0l-11.3,48.1C261,190.2,251,190.2,249.3,183.1z" class="color9cd3fc svgShape"></path><path fill="#ffbf66" d="M256,171l-18-36l0,0c9.9-9.9,26.1-9.9,36,0l0,0L256,171z" class="colorf8d707 svgShape"></path><path fill="#565656" d="M116 410L116 410 116 410c0-21.7 1-43.4 3-65h0c-13 0-24.5-8.6-28.3-21.1l-10.1-33.6C76.9 307 75 324.1 75 341.4v5.8C75 374.4 91.1 399.1 116 410zM396 410L396 410 396 410c0-21.7-1-43.4-3-65h0c13 0 24.5-8.6 28.3-21.1l10.1-33.6c3.7 16.7 5.6 33.8 5.6 51.1v5.8C437 374.4 420.9 399.1 396 410z" class="color265e87 svgShape"></path><g fill="#080808" class="color000000 svgShape"><path fill="#414141" d="M373 512h-78c-2.8 0-5-2.2-5-5v-15.4c0-20.7 16.9-37.6 37.6-37.6 13.8 0 26.5 7.5 33.1 19.7l16.8 30.9c.8 1.5.8 3.4-.1 4.9C376.4 511.1 374.8 512 373 512zM300 502h64.6l-12.8-23.6c-4.8-8.9-14.1-14.4-24.3-14.4-15.2 0-27.6 12.4-27.6 27.6V502zM217 512h-78c-1.8 0-3.4-.9-4.3-2.4-.9-1.5-.9-3.4-.1-4.9l16.8-30.9c6.6-12.1 19.2-19.7 33.1-19.7 20.7 0 37.6 16.9 37.6 37.6V507C222 509.8 219.8 512 217 512zM147.4 502H212v-10.4c0-15.2-12.4-27.6-27.6-27.6-10.1 0-19.4 5.5-24.3 14.4L147.4 502z" class="color213762 svgShape"></path><rect width="10" height="20" x="211" y="97" fill="#414141" class="color213762 svgShape"></rect><rect width="10" height="20" x="291" y="97" fill="#414141" class="color213762 svgShape"></rect><path fill="#414141" d="M256,176c-1.9,0-3.6-1.1-4.5-2.8l-18-36c-1-1.9-0.6-4.2,0.9-5.8c11.9-11.9,31.2-11.9,43.1,0c1.5,1.5,1.9,3.8,0.9,5.8l-18,36C259.6,174.9,257.9,176,256,176z M244.2,136.3l11.8,23.5l11.8-23.5C260.7,131.3,251.3,131.3,244.2,136.3z" class="color213762 svgShape"></path><path fill="#414141" d="M279 135h-10V86.3c0-21.1 17.2-38.3 38.3-38.3 14 0 26.8 7.6 33.6 19.9l5.4 9.8C334.8 38.6 298.7 10 256 10s-78.8 28.6-90.2 67.7l5.4-9.8c6.7-12.3 19.6-19.9 33.6-19.9 21.1 0 38.3 17.2 38.3 38.3V135h-10V86.3c0-15.6-12.7-28.3-28.3-28.3-10.3 0-19.8 5.6-24.8 14.7l-18.5 33.7c-1.1 2-3.4 3-5.6 2.4-2.2-.6-3.8-2.6-3.8-4.8C152 46.7 198.7 0 256 0s104 46.7 104 104c0 2.3-1.5 4.3-3.8 4.8-2.2.6-4.5-.4-5.6-2.4l-18.5-33.7c-5-9.1-14.5-14.7-24.8-14.7C291.7 58 279 70.7 279 86.3V135zM121 409h-10c0-78.9 12.9-156.7 38.4-231.3l2.8-8.3 9.5 3.2-2.8 8.3C133.7 254.5 121 331.3 121 409zM401 409h-10c0-77.7-12.7-154.5-37.9-228l-2.8-8.3 9.5-3.2 2.8 8.3C388.1 252.3 401 330.1 401 409z" class="color213762 svgShape"></path><rect width="59.1" height="10" x="215.9" y="478" fill="#414141" class="color213762 svgShape"></rect><path fill="#414141" d="M357.9,479.4l-4.5-8.9c23.2-11.9,37.7-35.4,37.7-61.5c0-2,1.2-3.8,3-4.6c23.1-10.1,38-33,38-58.2v-5.8c0-51.4-17.5-101.9-49.3-142.3C361.6,171.4,350,138,350,104c0-51.8-42.2-94-94-94s-94,42.2-94,94c0,34-11.6,67.4-32.7,94.1C97.5,238.5,80,289,80,340.4v5.8c0,17.2,7.1,33.9,19.5,45.8l-6.9,7.2c-14.3-13.8-22.5-33.1-22.5-53v-5.8c0-53.6,18.3-106.4,51.5-148.5c19.7-24.9,30.5-56.2,30.5-88C152,46.7,198.7,0,256,0s104,46.7,104,104c0,31.8,10.8,63,30.5,88c33.2,42.1,51.5,94.9,51.5,148.5v5.8c0,28.1-16,53.7-41.1,66C399.8,440.8,383.5,466.3,357.9,479.4z" class="color213762 svgShape"></path><g fill="#080808" class="color000000 svgShape"><path fill="#414141" d="M154.1,479.4C127.5,465.8,111,438.8,111,409h10c0,26.1,14.4,49.6,37.7,61.5L154.1,479.4z" class="color213762 svgShape"></path></g></g></svg>