<svg xmlns="http://www.w3.org/2000/svg" data-name="Layer 1" viewBox="0 0 512 512" id="Horn"><path fill="#171819" d="m418.55 500 24-24.1-18.06-18.14-24 24.1a12.88 12.88 0 0 0 0 18.14 12.73 12.73 0 0 0 18.06 0Z" class="colorfed402 svgShape"></path><path fill="#ff6699" d="m454.7 475.91 31.22-31.36a21.54 21.54 0 0 0 0-30.35 21.29 21.29 0 0 0-30.22 0l-31.22 31.36a21.54 21.54 0 0 0 0 30.35 21.31 21.31 0 0 0 30.22 0Z" class="colorfedf30 svgShape"></path><path fill="#171819" d="M485.92 414.2a21.27 21.27 0 0 0-22.61-4.91 21.25 21.25 0 0 1 7.61 4.91 21.54 21.54 0 0 1 0 30.35l-31.22 31.36a21.39 21.39 0 0 1-7.61 4.91 21.29 21.29 0 0 0 22.61-4.91l31.22-31.36a21.54 21.54 0 0 0 0-30.35Z" class="colorfed402 svgShape"></path><path fill="#4fadd0" d="m447.92 422-15.65 15.73-224.08-186.66-6.49-5.41-.94-.78-5.16-4.29-1.16-1-.58-.48-11.68-9.74-10-8.3q-4-3.34-8.19-6.49A214.62 214.62 0 0 0 40.72 171.4L182.79 28.67a216.9 216.9 0 0 0 41.74 122.13c2.47 3.39 5.06 6.71 7.74 10l6.75 8.18 12.89 15.6.89 1.08c4 4.83 7.25 8.79 7.25 8.79Z" class="color4f66d0 svgShape"></path><path fill="#17799e" d="M74.21 167.75c42.85-43 114-37.25 149.55 12l.77 1.06c2.47 3.39 5.06 6.71 7.74 10l6.75 8.18 12.89 15.6.89 1.08c4 4.83 7.25 8.79 7.25 8.79l174.34 211.2L447.92 422 260.05 194.41s-3.28-4-7.25-8.79l-.89-1.08-12.91-15.6-6.75-8.18c-2.68-3.25-5.27-6.57-7.74-10a216.9 216.9 0 0 1-41.72-122.09L40.72 171.4a214.84 214.84 0 0 1 27.35 2.52Z" class="color314dc9 svgShape"></path><path fill="#ff6699" d="M24.21 151.69 163.09 12.18a15.06 15.06 0 0 1 21.35 0 15.06 15.06 0 0 1 0 21.26L45.57 173a15.06 15.06 0 0 1-21.35 0 15.07 15.07 0 0 1-.01-21.31ZM365 321.56l-32.81 32.81-57.47-47.84-32.33-26.92-36.02-29.98 52.39-56.78 38.29 46.39 18.92 22.92 49.03 59.4z" class="colorfedf30 svgShape"></path><path fill="#171819" d="M297.05 239.24 259 193.14l-.24-.29L245.69 207l6.22 7.53.89 1.08c4 4.83 7.25 8.79 7.25 8.79l91.39 110.71L365 321.56l-49-59.4Z" class="colorfed402 svgShape"></path><path fill="#ff6699" d="m93.45 500-24-24.1 18.06-18.14 24 24.1a12.88 12.88 0 0 1 0 18.14 12.73 12.73 0 0 1-18.06 0Z" class="colorfedf30 svgShape"></path><path fill="#ff6699" d="m57.3 475.91-31.22-31.36a21.54 21.54 0 0 1 0-30.35 21.29 21.29 0 0 1 30.22 0l31.22 31.36a21.54 21.54 0 0 1 0 30.35 21.31 21.31 0 0 1-30.22 0Z" class="colorfedf30 svgShape"></path><path fill="#171819" d="M87.52 445.56 56.3 414.2a21.28 21.28 0 0 0-27.5-2.29 21.23 21.23 0 0 1 7.67 4.93l31.22 31.36a21.53 21.53 0 0 1 0 30.36 21.62 21.62 0 0 1-2.69 2.28 21.28 21.28 0 0 0 22.55-4.93 21.54 21.54 0 0 0-.03-30.35Z" class="colorfed402 svgShape"></path><path fill="#4fadd0" d="M329.21 28.67a216.89 216.89 0 0 1-49.48 132.09L64.08 422l15.65 15.73L256 290.92l6.1-5.08 45.9-38.25 31.8-26.49a214.73 214.73 0 0 1 131.49-49.7Z" class="color4f66d0 svgShape"></path><path fill="#17799e" d="M329.21 28.67a218.6 218.6 0 0 1-2.53 27.6l.52.52c45.3 45.51 39.69 120.06-11.15 159.29-2.11 1.63-4.2 3.31-6.26 5L278 247.59l-45.91 38.25-6.1 5.08L66.13 424.08l13.6 13.66L256 290.92l6.1-5.08 45.9-38.25 31.8-26.49a214.73 214.73 0 0 1 131.49-49.7Z" class="color314dc9 svgShape"></path><path fill="#ff6699" d="M487.79 151.69 348.91 12.18a15.06 15.06 0 0 0-21.35 0 15.06 15.06 0 0 0 0 21.26L466.43 173a15.06 15.06 0 0 0 21.35 0 15.07 15.07 0 0 0 .01-21.31ZM253.24 192.85l54.79 54.78-128.22 106.74L147 321.56l106.24-128.71z" class="colorfedf30 svgShape"></path><path fill="#171819" d="m294.36 233.96-16.37 13.63-45.91 38.25-6.1 5.08-59.8 49.82 13.63 13.63.21-.17 75.96-63.28 6.1-5.08 45.91-38.24-13.63-13.64z" class="colorfed402 svgShape"></path><path fill="#96a135" d="M423.58 38.5a6.06 6.06 0 0 1-.73 0 7.5 7.5 0 0 1-6.74-8.19l2.29-23.5a7.5 7.5 0 0 1 14.93 1.46L431 31.72a7.51 7.51 0 0 1-7.42 6.78zm21.21 21.21a7.5 7.5 0 0 1-5.3-12.8L452.38 34A7.5 7.5 0 0 1 463 44.62l-12.91 12.89a7.44 7.44 0 0 1-5.3 2.2zM466 80.92a7.5 7.5 0 0 1-.71-15l23.49-2.29a7.5 7.5 0 0 1 1.46 14.93l-23.5 2.29c-.26.06-.5.07-.74.07zM88.42 38.5A7.51 7.51 0 0 1 81 31.72L78.67 8.23A7.5 7.5 0 0 1 93.6 6.77l2.29 23.5a7.5 7.5 0 0 1-6.74 8.19 6.06 6.06 0 0 1-.73.04zM67.21 59.71a7.44 7.44 0 0 1-5.3-2.2L49 44.62A7.5 7.5 0 0 1 59.62 34l12.89 12.91a7.5 7.5 0 0 1-5.3 12.8zM46 80.92h-.74L21.77 78.6a7.5 7.5 0 0 1 1.46-14.93L46.72 66a7.5 7.5 0 0 1-.71 15z" class="color7a6d79 svgShape"></path></svg>