<svg xmlns="http://www.w3.org/2000/svg" width="32" height="32" viewBox="0 0 8.467 8.467" id="horse"><g color="#000" font-family="sans-serif" font-weight="400"><path d="M-261.625 165.17a.132.132 0 0 0-.111.164c.076.33.376.627.627.91.125.142.24.278.308.389.07.11.081.184.07.213-.007.02-.01.042-.007.064a.187.187 0 0 0 .062.117c.04.034.088.043.123.043.07 0 .119-.023.176-.047.114-.047.25-.119.408-.173.315-.11.674-.161 1.049.205.005.005.011.01.017.013l.192.131-.252.102-.313-.238.016.013a.378.378 0 0 0-.352-.095 1.102 1.102 0 0 0-.335.152c-.22.136-.448.313-.62.383-.122.05-.195.077-.279.058-.084-.018-.211-.096-.406-.324-.115-.136-.318.038-.201.172.212.248.38.372.55.41.171.038.314-.02.436-.07.233-.095.461-.282.66-.404a.93.93 0 0 1 .25-.12c.061-.013.077-.01.106.02l.015.014.371.285a.132.132 0 0 0 .131.017l.549-.224c.096-.04.11-.17.025-.23l-.392-.27.017.015c-.45-.439-.96-.39-1.32-.265-.15.055-.272.114-.41.174a.61.61 0 0 0-.111-.282 3.358 3.358 0 0 0-.334-.422c-.254-.286-.523-.599-.569-.796a.132.132 0 0 0-.146-.104z" overflow="visible" style="line-height:normal;font-variant-ligatures:normal;font-variant-position:normal;font-variant-caps:normal;font-variant-numeric:normal;font-variant-alternates:normal;font-feature-settings:normal;text-indent:0;text-align:start;text-decoration-line:none;text-decoration-style:solid;text-decoration-color:#000;text-transform:none;text-orientation:mixed;shape-padding:0;isolation:auto;mix-blend-mode:normal" transform="translate(265.86 -163.623)"></path><path d="M-262.625 163.729a.132.132 0 0 0-.111.101c-.05.174-.053.499.143.699-.05.417.122 1.008.2 1.3.05.187.09.325.078.439-.01.114-.06.226-.244.396l-.093.086.18.195.093-.088c.21-.195.311-.38.328-.566.017-.186-.038-.35-.086-.531-.104-.393-.241-.837-.185-1.266a.132.132 0 0 0-.047-.119.381.381 0 0 1-.128-.318.864.864 0 0 1 .19.162c.035.042.091.059.143.043.09-.029.163-.015.267.017.105.033.232.087.393.11l.494.066c.04.006.074.02.09.031s.017.013.02.031l.008.069a.068.068 0 0 1-.063.076l-.268.03a.133.133 0 0 0-.082.042c-.389.42-.418.335-.64.424-.183.057-.072.331.1.244.132-.053.346-.048.7-.452l.221-.026a.337.337 0 0 0 .295-.37l-.002-.001-.008-.065v-.002a.318.318 0 0 0-.129-.217.457.457 0 0 0-.207-.076l-.492-.066c-.12-.017-.229-.062-.351-.1a.802.802 0 0 0-.342-.035 1.016 1.016 0 0 0-.4-.256c-.021-.008-.043-.01-.065-.008zm-.494 3.492a.133.133 0 0 0-.08.037l-.858.797c-.237.217-.365.459-.39.7a.989.989 0 0 0 .193.677c.258.363.756.653 1.277.737-.097.798-.209 1.106-.209 1.106 0 .002-.003.004-.004.006a.309.309 0 0 0 .02.243c.036.062.08.096.111.125.031.028.05.049.059.07.01.02.016.046.004.107a.132.132 0 0 0 .13.158h.462c.073 0 .133-.059.132-.132 0 .012.004-.02.01-.057a.646.646 0 0 0-.138-.51c.04-.373.195-.774.318-1.103.222-.592-.071-1.164-.27-1.56-.079-.158-.315-.04-.236.118.199.397.433.883.258 1.348-.124.332-.303.791-.338 1.227a.13.13 0 0 0 .034.097.395.395 0 0 1 .113.309l-.208-.004a.413.413 0 0 0-.031-.11.476.476 0 0 0-.12-.154.286.286 0 0 1-.068-.079c-.001-.006.145-.357.249-1.301a.133.133 0 0 0-.116-.147c-.524-.063-.997-.328-1.222-.646a.722.722 0 0 1-.149-.496c.018-.17.106-.35.307-.534h.002l.86-.798a.132.132 0 0 0-.102-.23z" overflow="visible" style="line-height:normal;font-variant-ligatures:normal;font-variant-position:normal;font-variant-caps:normal;font-variant-numeric:normal;font-variant-alternates:normal;font-feature-settings:normal;text-indent:0;text-align:start;text-decoration-line:none;text-decoration-style:solid;text-decoration-color:#000;text-transform:none;text-orientation:mixed;shape-padding:0;isolation:auto;mix-blend-mode:normal" transform="translate(265.86 -163.623)"></path><path d="M-264.794 168.829c-.245.268-.182.664.052.913l.392.416c.074.08.085.173.025.242a.164.164 0 0 1-.112.057.132.132 43.986 1 0 .019.264.432.432 0 0 0 .294-.147c.155-.178.118-.437-.032-.596l-.393-.418c-.159-.17-.193-.397-.05-.553.09-.1.118-.094.222-.084a.132.132 43.986 1 0 .023-.264.519.519 0 0 0-.44.17z" overflow="visible" style="line-height:normal;font-variant-ligatures:normal;font-variant-position:normal;font-variant-caps:normal;font-variant-numeric:normal;font-variant-alternates:normal;font-feature-settings:normal;text-indent:0;text-align:start;text-decoration-line:none;text-decoration-style:solid;text-decoration-color:#000;text-transform:none;text-orientation:mixed;shape-padding:0;isolation:auto;mix-blend-mode:normal" transform="translate(265.86 -163.623)"></path><path d="M-264.527 170.5a.132.132 43.986 0 0 .069.218c.2.05.477.057.673-.105.133-.1.177-.232.217-.307a.133.133 43.986 1 0-.235-.125c-.058.11-.078.178-.142.225a.132.132 43.986 0 0-.006.005c-.07.06-.309.084-.445.05a.132.132 43.986 0 0-.131.04zm3.543-2.848c-.334.657-.813 1.085-1.442 1.32l.094.249c.687-.257 1.225-.743 1.584-1.45zm-2.598.141.225.243a.92.92 0 0 0 .992.239c.176-.055.081-.319-.09-.249a.666.666 0 0 1-.708-.17l-.225-.243zm2.387-3.504-.264.033.072.563.264-.033z" overflow="visible" style="line-height:normal;font-variant-ligatures:normal;font-variant-position:normal;font-variant-caps:normal;font-variant-numeric:normal;font-variant-alternates:normal;font-feature-settings:normal;text-indent:0;text-align:start;text-decoration-line:none;text-decoration-style:solid;text-decoration-color:#000;text-transform:none;text-orientation:mixed;shape-padding:0;isolation:auto;mix-blend-mode:normal" transform="translate(265.86 -163.623)"></path><path d="m-262.402 164.613-.121.235c.308.156.708.23 1.228.197l-.018-.264c-.486.031-.833-.038-1.09-.168zm-1.918-.235c-.29 0-.529.239-.529.53 0 .29.239.529.53.529.29 0 .529-.239.529-.53 0-.29-.239-.529-.53-.529zm0 .264a.264.264 0 1 1 0 .529.261.261 0 0 1-.263-.264c0-.147.116-.265.263-.265zm1.51.474a.132.132 0 0 0-.035.006l-1.322.397a.132.132 0 0 0-.002 0 .4.4 0 0 0-.272.467l.264 1.191c.04.18.202.31.387.31h.984l.615.502c.094.082.21.116.315.1a.403.403 0 0 0 .252-.148.404.404 0 0 0 .093-.278.398.398 0 0 0-.16-.287l-.722-.594a.132.132 0 0 0-.002-.002.393.393 0 0 0-.25-.087h-.807l-.115-.52.968-.291a.132.132 0 1 0-.074-.254l-1.088.326a.132.132 0 0 0-.091.156l.166.745a.132.132 0 0 0 .128.103h.913c.03 0 .062.01.085.03l.725.593a.132.132 0 0 0 .004.004c.046.035.055.062.057.092a.15.15 0 0 1-.036.098.143.143 0 0 1-.085.052c-.03.004-.06.001-.104-.037a.132.132 0 0 0-.002-.002l-.654-.535a.132.132 0 0 0-.084-.031h-1.031a.131.131 0 0 1-.13-.104l-.263-1.191a.13.13 0 0 1 .092-.154l1.32-.397a.132.132 0 0 0-.039-.26z" overflow="visible" style="line-height:normal;font-variant-ligatures:normal;font-variant-position:normal;font-variant-caps:normal;font-variant-numeric:normal;font-variant-alternates:normal;font-feature-settings:normal;text-indent:0;text-align:start;text-decoration-line:none;text-decoration-style:solid;text-decoration-color:#000;text-transform:none;text-orientation:mixed;shape-padding:0;isolation:auto;mix-blend-mode:normal" transform="translate(265.86 -163.623)"></path></g></svg>