<svg xmlns="http://www.w3.org/2000/svg" viewBox="0 0 512 512" id="shield"><path fill="#b28b6a" d="m256.28 504.5 40.79-30.13A335.73 335.73 0 0 0 433 204.31V77.13a299 299 0 0 1-116-29.78A296.62 296.62 0 0 1 256 7.5a296.62 296.62 0 0 1-61 39.85A299 299 0 0 1 79 77.13v127.18a335.73 335.73 0 0 0 136 270.06l40.79 30.13"></path><path fill="#a17855" d="M317 47.35A296.62 296.62 0 0 1 256 7.5c-5.09 4.3-17 13.32-17 13.32s.79 2.68 2 1.68a296.62 296.62 0 0 0 61 39.85 297.68 297.68 0 0 0 98.3 28.36 20 20 0 0 1 17.7 19.87v108.73a336.12 336.12 0 0 1-90.91 230 336 336 0 0 0 105.91-245V77.13a299 299 0 0 1-116-29.78Z"></path><path fill="#efefef" d="M139 129.64v74.67c0 87.26 41.73 170.18 111.61 221.8l5.42 4 5.42-4C331.3 374.49 373 291.57 373 204.31v-74.67a354.1 354.1 0 0 1-82.38-28.39A354.52 354.52 0 0 1 256 81.82a354.52 354.52 0 0 1-34.65 19.43A354.1 354.1 0 0 1 139 129.64Z"></path><path fill="#e1e1e3" d="M290.65 101.25A354.52 354.52 0 0 1 256 81.82q-10.51 6.69-21.48 12.64a357.19 357.19 0 0 0 33.63 18.79 354.65 354.65 0 0 0 67.45 24.89 20 20 0 0 1 14.93 19.34v58.83a276.94 276.94 0 0 1-98.12 211.15l3.59 2.65 5.42-4C331.3 374.49 373 291.57 373 204.31v-74.67a354.1 354.1 0 0 1-82.35-28.39Z"></path><path fill="#eb304a" d="m258.83 298 11.1-11.11a3 3 0 0 0 .88-2.12v-24.66a3 3 0 0 1 3-3h24a3 3 0 0 0 2.12-.88L311 245.12a3 3 0 0 0 0-4.25l-11.1-11.1a3 3 0 0 0-2.12-.87h-24a3 3 0 0 1-3-3v-24.67a3 3 0 0 0-.88-2.12L258.83 188a3 3 0 0 0-4.24 0l-11.11 11.11a3 3 0 0 0-.88 2.12v24.67a3 3 0 0 1-3 3h-25.38a3 3 0 0 0-2.12.87l-11.1 11.1a3 3 0 0 0 0 4.25l11.1 11.11a3 3 0 0 0 2.12.88h25.38a3 3 0 0 1 3 3v24.66a3 3 0 0 0 .88 2.12L254.59 298a3 3 0 0 0 4.24 0Z"></path><path fill="#e4222e" d="m311 240.87-11.1-11.1a3 3 0 0 0-2.12-.87h-24a3 3 0 0 1-3-3v-24.67a3 3 0 0 0-.88-2.12L258.83 188a3 3 0 0 0-4.24 0l-11.11 11.11a2 2 0 0 1 .39.32l11.1 11.1a3 3 0 0 1 .88 2.13v24.66a3 3 0 0 0 3 3h24a3 3 0 0 1 2.12.88l11.1 11.1a3 3 0 0 1 0 4.24l-.51.51h2.29a3 3 0 0 0 2.12-.87L311 245.12a3 3 0 0 0 0-4.25Z"></path><path d="M258.59 460.35a7.51 7.51 0 1 0 1.84 13.11 7.5 7.5 0 0 0-1.88-13.08Zm-141.51-186a7.5 7.5 0 0 0-5.39 9.14.74.74 0 0 1 0 .14 7.47 7.47 0 0 0 9.13 5.29 7.53 7.53 0 0 0-3.78-14.57Zm19 55.81a7.5 7.5 0 0 0-3.62 10l.08.18a7.44 7.44 0 0 0 6.71 4.2 7.52 7.52 0 1 0-3.17-14.35Zm-19-107.1v-.21a7.5 7.5 0 1 0-15 1.09l7.48-.43-7.48.45a7.49 7.49 0 0 0 7.48 7.05h.44a7.5 7.5 0 0 0 7.07-7.94Zm48.24 158.34a7.49 7.49 0 0 0-1.56 10.49l.06.08a7.41 7.41 0 0 0 6 3 7.52 7.52 0 1 0-4.47-13.58ZM298.52 80a7.5 7.5 0 0 0 6.71-13.41h-.08a7.44 7.44 0 0 0-10 3.37A7.52 7.52 0 0 0 298.52 80Zm-45-26.71a7.38 7.38 0 0 0 2.53.45A7.51 7.51 0 1 0 252 39.93a7.48 7.48 0 0 0 1.57 13.37ZM210.19 80.8a7.5 7.5 0 1 0-3.34-14.21h-.08a7.49 7.49 0 0 0 3.42 14.17ZM109 112.86a7.53 7.53 0 0 0 7.37-9.07 7.52 7.52 0 0 0-14.87 1.55 7.48 7.48 0 0 0 7.5 7.52Zm51.83-12.33a7.62 7.62 0 0 0 2.15-.32 7.5 7.5 0 1 0-4.28-14.37h-.17a7.46 7.46 0 0 0-4.91 9.33 7.54 7.54 0 0 0 7.18 5.36ZM109 171.93a7.53 7.53 0 1 0-7.5-7.55v.1a7.46 7.46 0 0 0 7.5 7.45Zm105.41 253.59a7.5 7.5 0 0 0-10 11.14l5.1-5.5-5.08 5.52a7.5 7.5 0 0 0 10.16-11ZM278.31 200a7.54 7.54 0 0 0-2.19-5.3L262 180.57a7.54 7.54 0 0 0-5.31-2.19 7.5 7.5 0 0 0-5.3 2.19l-14.09 14.11a7.5 7.5 0 0 0-2.2 5.3v21.42H213a7.5 7.5 0 0 0-5.3 2.19l-14.1 14.1a7.51 7.51 0 0 0 0 10.61l14.1 14.11a7.55 7.55 0 0 0 5.31 2.2h22.09V286a7.51 7.51 0 0 0 2.2 5.31l14.11 14.11a7.51 7.51 0 0 0 5.3 2.2 7.55 7.55 0 0 0 5.31-2.2l14.1-14.11a7.54 7.54 0 0 0 2.19-5.31v-21.4H299a7.55 7.55 0 0 0 5.31-2.2l14.1-14.11a7.51 7.51 0 0 0 0-10.61l-14.1-14.1a7.5 7.5 0 0 0-5.3-2.19h-20.7Zm17.6 36.42 6.61 6.6-6.61 6.61h-25.1a7.5 7.5 0 0 0-7.5 7.5v25.8l-6.6 6.61-6.61-6.61v-25.8a7.5 7.5 0 0 0-7.5-7.5h-26.51l-6.61-6.63 6.61-6.6h26.51a7.5 7.5 0 0 0 7.5-7.5v-25.81l6.61-6.61 6.6 6.61v25.81a7.5 7.5 0 0 0 7.5 7.5ZM260 75.49a7.53 7.53 0 0 0-8.06 0 346.33 346.33 0 0 1-33.92 19 347.79 347.79 0 0 1-80.63 27.8 7.49 7.49 0 0 0-5.95 7.33v74.67c0 89.63 42.87 174.8 114.66 227.83l5.41 4a7.5 7.5 0 0 0 8.92 0l5.41-4c71.79-53 114.66-138.2 114.66-227.83v-74.65a7.49 7.49 0 0 0-5.95-7.33A347.79 347.79 0 0 1 294 94.51a346.33 346.33 0 0 1-34-19.02Zm105.5 128.82c0 84.89-40.59 165.55-108.57 215.77l-1 .71-1-.71c-68-50.22-108.57-130.88-108.57-215.77v-68.64A363.24 363.24 0 0 0 224.64 108c10.67-5.22 21.2-11 31.36-17.32A361.79 361.79 0 0 0 287.36 108a363.24 363.24 0 0 0 78.17 27.68ZM391.15 289a7.63 7.63 0 0 0 1.88.24 7.51 7.51 0 0 0 7.26-5.63l-7.24-2 7.25 1.92a7.5 7.5 0 0 0-14.5-3.85s0 .13 0 .15a7.49 7.49 0 0 0 5.35 9.17Zm42.26-219.36a289.8 289.8 0 0 1-113.11-29 289 289 0 0 1-59.46-38.87 7.5 7.5 0 0 0-9.68 0 289 289 0 0 1-59.46 38.84 289.8 289.8 0 0 1-113.11 29 7.51 7.51 0 0 0-7.12 7.49v127.21a343.18 343.18 0 0 0 139 276.09l40.79 30.13A7.48 7.48 0 0 0 256 512h.28a7.46 7.46 0 0 0 4.45-1.47l40.79-30.13A343.74 343.74 0 0 0 403.8 359a345.75 345.75 0 0 0 36.73-154.72V77.13a7.51 7.51 0 0 0-7.12-7.49Zm-7.88 134.67c0 103.85-49.69 202.55-132.92 264l-36.61 27-36.61-27c-83.23-61.48-132.92-160.18-132.92-264V84.18a304.26 304.26 0 0 0 111.82-30.09A304.34 304.34 0 0 0 256 17.23a304.34 304.34 0 0 0 57.71 36.86 304.26 304.26 0 0 0 111.82 30.09ZM349 100.19h.16a7.5 7.5 0 0 0 4.3-14.37L351.19 93l2.22-7.16a7.5 7.5 0 0 0-4.41 14.35ZM401.86 231a5.43 5.43 0 0 0 .57 0 7.51 7.51 0 0 0 7.47-7s0-.17 0-.21a7.5 7.5 0 1 0-8.05 7.13ZM297.67 425.44l-.25.23a7.5 7.5 0 1 0 .25-.23Zm5.52 6.27-.56-.64.59.68Zm43.47-50.29A7.53 7.53 0 1 0 348.2 392l.06-.08a7.46 7.46 0 0 0-1.6-10.5ZM376 330.19a7.51 7.51 0 0 0-10 3.49l-.08.18a7.5 7.5 0 0 0 13.58 6.37l-6.77-3.23 6.75 3.26a7.51 7.51 0 0 0-3.48-10.07Zm27-173.3a7.53 7.53 0 1 0 7.5 7.55v-.1a7.46 7.46 0 0 0-7.5-7.45Zm0-44A7.51 7.51 0 0 0 404.57 98h-.05a7.51 7.51 0 1 0-1.52 14.86Z"></path></svg>