<svg xmlns="http://www.w3.org/2000/svg" xmlns:xlink="http://www.w3.org/1999/xlink" viewBox="0 0 512 512" id="spear"><defs><linearGradient id="b" x1="-10250.982" x2="-10250.982" y1="6176.038" y2="5755.471" gradientTransform="translate(10525.225 -5691.493)" gradientUnits="userSpaceOnUse"><stop offset="0" stop-color="#63433b"></stop><stop offset="1" stop-color="#a36841"></stop></linearGradient><linearGradient id="a" x1="-10328.819" x2="-10328.819" y1="5819.507" y2="5788.032" gradientTransform="rotate(-45 -11858.61 -9585.063)" gradientUnits="userSpaceOnUse"><stop offset="0" stop-color="#313131"></stop><stop offset=".507" stop-color="#343434"></stop><stop offset=".938" stop-color="#3f3f3f"></stop><stop offset="1" stop-color="#414141"></stop></linearGradient><linearGradient id="c" x1="-10318.867" x2="-10318.867" y1="5884.872" y2="5798.587" xlink:href="#a"></linearGradient><linearGradient id="d" x1="-10250.969" x2="-10250.969" y1="5809.561" y2="5777.476" gradientTransform="translate(10403.432 -5641.057)" xlink:href="#a"></linearGradient><linearGradient id="e" x1="-10250.969" x2="-10250.969" y1="5793.519" y2="5649.334" gradientTransform="rotate(-45 -11858.61 -9585.063)" gradientUnits="userSpaceOnUse"><stop offset="0" stop-color="#aeb6d6"></stop><stop offset="1" stop-color="#cdd4ec"></stop></linearGradient><linearGradient id="f" x1="-10250.969" x2="-10250.969" y1="6151.751" y2="6100.431" gradientTransform="translate(10638.596 -5738.464)" xlink:href="#a"></linearGradient><linearGradient id="g" x1="-10461.526" x2="-10461.526" y1="6761.759" y2="6690.186" gradientTransform="rotate(180 -5015.651 3578.097)" xlink:href="#a"></linearGradient><linearGradient id="h" x1="-10250.969" x2="-10250.969" y1="6105.13" y2="6087.285" gradientTransform="translate(10617.466 -5729.711)" xlink:href="#a"></linearGradient></defs><g data-name="Layer 16"><rect width="34.521" height="420.567" x="256.982" y="63.977" fill="url(#b)" transform="rotate(-45 274.243 274.261)"></rect><rect width="34.546" height="24.949" x="354.03" y="358.847" fill="#4c332e" transform="rotate(-45 371.304 371.322)"></rect><path fill="#4c332e" d="M158.56,134.132,134.132,158.56l17.453,17.453a23.855,23.855,0,0,0,24.428-24.428Z"></path><path fill="url(#a)" d="M137.855,164.467c4.239,12.6,2.711,26.846-3.306,38.7s-16.308,21.318-28.239,27.181c-7.767,3.817-16.169,6.162-24.115,9.59s-15.687,8.194-20.36,15.478c2.58-11.632,9.873-21.731,18.386-30.067s18.326-15.206,27.478-22.835,17.818-16.253,23.085-26.94a33.608,33.608,0,0,0,3.733-12.925Z"></path><path fill="#4d4d4d" d="M67.747,248.673c3.561-7.731,9.04-14.642,15.162-20.636,8.514-8.335,18.326-15.206,27.477-22.835s17.818-16.253,23.087-26.94a33.624,33.624,0,0,0,3.732-12.925l1.1.6c-.146-.49-.285-.983-.449-1.469l-3.338-1.817a33.624,33.624,0,0,1-3.732,12.925c-5.269,10.687-13.935,19.31-23.087,26.94s-18.963,14.5-27.477,22.835-15.806,18.435-18.386,30.067A32,32,0,0,1,67.747,248.673Z"></path><path fill="url(#c)" d="M149.406,162.8c11.713,14.583,11.75,35.637,6.308,53.532s-15.57,33.96-22.852,51.188c-5.193,12.285-8.952,26.085-5.127,38.863-4.919-6.418-9.876-12.9-13.35-20.2s-5.4-15.589-3.905-23.537c2.176-11.584,11-20.537,18.016-30.01,13.472-18.191,21.182-42.1,14.772-63.811Z"></path><path fill="#2d2d2d" d="M151.532,212.152c-5.442,17.894-15.569,33.959-22.851,51.188-4.91,11.616-8.529,24.586-5.676,36.766,1.548,2.116,3.139,4.2,4.73,6.278-3.825-12.778-.066-26.578,5.127-38.863,7.282-17.228,17.409-33.293,22.852-51.188s5.405-38.95-6.308-53.531l-.8.787C156.856,177.741,156.385,196.2,151.532,212.152Z"></path><path fill="url(#d)" d="M128.545,136.42H176.38a0,0,0,0,1,0,0v8.168a23.917,23.917,0,0,1-23.917,23.917h0a23.917,23.917,0,0,1-23.917-23.917V136.42a0,0,0,0,1,0,0Z" transform="rotate(-45 152.463 152.463)"></path><path fill="#2d2d2d" d="M158.031,124.207l-33.824,33.824,5.775,5.776c.146.145.305.268.453.409a29.166,29.166,0,0,0,25.612-8.169h0a29.169,29.169,0,0,0,8.169-25.612c-.141-.148-.264-.307-.41-.452Z"></path><path fill="url(#e)" d="M50.509,50.509l55.884,95.975a29.321,29.321,0,0,0,46.07,5.979h0a29.321,29.321,0,0,0-5.979-46.07Z"></path><path fill="#e3eaff" d="M62.78,62.781l94.873,55.242a29.081,29.081,0,0,0-11.169-11.63L50.509,50.509l55.884,95.975a29.081,29.081,0,0,0,11.63,11.169Z"></path><path fill="#989fb7" d="M145.473,105.805a29.308,29.308,0,0,1-5.147,34.521h0a29.309,29.309,0,0,1-34.522,5.147l.589,1.011a29.321,29.321,0,0,0,46.07,5.979h0a29.321,29.321,0,0,0-5.979-46.07Z"></path><circle cx="87.316" cy="83.272" r="2.347" fill="#e3eaff"></circle><circle cx="93.371" cy="87.505" r="2.902" fill="#e3eaff"></circle><rect width="9.82" height="51.319" x="382.717" y="361.967" fill="url(#f)" transform="rotate(-45 387.627 387.627)"></rect><path fill="url(#g)" d="M430.226,394.439h0a20.349,20.349,0,0,1,20.349,20.349v47.46a3.764,3.764,0,0,1-3.764,3.764h-33.17a3.764,3.764,0,0,1-3.764-3.764v-47.46A20.349,20.349,0,0,1,430.226,394.439Z" transform="rotate(135 430.226 430.226)"></path><path fill="#2d2d2d" d="M433.534,433.534h0a20.35,20.35,0,0,1-28.778,0l22,22a20.349,20.349,0,0,0,28.778,0h0a20.349,20.349,0,0,0,0-28.778l-22-22A20.349,20.349,0,0,1,433.534,433.534Z"></path><rect width="9.82" height="15.061" x="369.898" y="367.277" fill="#2d2d2d" transform="rotate(-45 374.808 374.809)"></rect><rect width="45.25" height="17.846" x="343.871" y="357.573" fill="url(#h)" rx="8.923" transform="rotate(-45 366.496 366.496)"></rect><path fill="#4d4d4d" d="M352.8,372.18,372.18,352.8a8.92,8.92,0,0,1,11.357-1.042A9.027,9.027,0,0,0,382.5,350.5a8.924,8.924,0,0,0-12.619,0L350.5,369.876a8.9,8.9,0,0,0,1.262,13.661A8.922,8.922,0,0,1,352.8,372.18Z"></path><circle cx="86.798" cy="228.773" r="1.711" fill="#4d4d4d"></circle><circle cx="90.563" cy="225.503" r="1.362" fill="#4d4d4d"></circle><path fill="#333" d="M457.352,425.189l-33.56-33.56a6.26,6.26,0,0,0-6.011-1.624l-30.427-30.428a11.386,11.386,0,0,0-13.689-13.688L173.316,145.539a26.217,26.217,0,0,0-7.689-17.121L163,125.793a31.567,31.567,0,0,0-15.207-21.356L51.82,48.552A2.5,2.5,0,0,0,48.4,51.97l55.885,95.976a31.568,31.568,0,0,0,21.356,15.207l2.625,2.625a26.6,26.6,0,0,0,2.845,2.462,37.653,37.653,0,0,1-2.518,6.432c-5.5,11.155-14.883,19.822-22.444,26.125-3.079,2.567-6.3,5.1-9.416,7.549a220.128,220.128,0,0,0-18.21,15.421c-10.284,10.069-16.7,20.6-19.077,31.311a2.5,2.5,0,0,0,4.545,1.891c3.718-5.795,10.013-10.549,19.246-14.531,3.3-1.424,6.766-2.689,10.12-3.913a142.459,142.459,0,0,0,14.107-5.729c12.891-6.335,23.32-16.384,29.365-28.294a54.894,54.894,0,0,0,5.993-24.742c1.56,16.651-4.194,35.268-16.284,51.593-1.4,1.891-2.913,3.81-4.375,5.667-6.018,7.636-12.242,15.531-14.089,25.37-1.449,7.712-.029,16.382,4.1,25.072,3.6,7.574,8.7,14.22,13.624,20.646a2.5,2.5,0,0,0,4.379-2.238c-3.02-10.089-1.421-21.9,5.035-37.172,2.735-6.468,5.943-12.91,9.046-19.139,5.141-10.32,10.457-20.993,13.895-32.295a77.873,77.873,0,0,0,3.508-27.483l184.071,184.07a11.39,11.39,0,0,0,13.667,13.667l30.443,30.443a6.261,6.261,0,0,0,1.631,5.982l33.56,33.559a22.849,22.849,0,0,0,32.313-32.313Zm-43.717-32.26-5.189,5.188-28.58-28.58,4.45-4.45c.249-.249.48-.51.7-.776Zm-37.3-19.857,28.58,28.58-3.409,3.409-28.581-28.58ZM168.366,147.1a21.418,21.418,0,0,1-34.922,16.623,31.848,31.848,0,0,0,30.121-30.133A21.254,21.254,0,0,1,168.366,147.1Zm-59.759-1.668L57.488,57.638l87.792,51.119a26.82,26.82,0,1,1-36.673,36.673Zm23.766,56.809c-5.559,10.951-15.188,20.21-27.112,26.069a138.787,138.787,0,0,1-13.616,5.52c-3.42,1.249-6.957,2.539-10.387,4.018A61.144,61.144,0,0,0,68.4,245.135a70.956,70.956,0,0,1,13.621-17.8,216.662,216.662,0,0,1,17.8-15.062c3.143-2.472,6.393-5.027,9.527-7.64,7.94-6.619,17.813-15.756,23.728-27.754a44.156,44.156,0,0,0,2.439-5.973c.518.249,1.04.482,1.569.694A48.89,48.89,0,0,1,132.373,202.239Zm21,13.57c-3.315,10.9-8.537,21.384-13.586,31.521-3.138,6.3-6.381,12.81-9.176,19.42-4.91,11.615-7.175,21.468-6.881,30.23a79.114,79.114,0,0,1-7.036-11.666c-2.564-5.389-5.287-13.58-3.706-22,1.621-8.631,7.2-15.707,13.1-23.2,1.486-1.885,3.022-3.834,4.467-5.786,13.752-18.57,19.756-40.065,16.75-58.908l8.558,8.558C157.567,193.6,156.794,204.568,153.375,215.809Zm-1.4-42.786a26.412,26.412,0,0,0,20.9-20.85L368.936,348.23c-.266.223-.526.455-.774.7l-19.378,19.378c-.256.256-.493.522-.72.8ZM352.319,380.93a6.43,6.43,0,0,1,0-9.083L371.7,352.469a6.423,6.423,0,1,1,9.084,9.083L361.4,380.93a6.421,6.421,0,0,1-9.083,0Zm12.618,3.535,4.449-4.449L397.967,408.6,392.76,413.8l-28.617-28.617C364.416,384.958,364.683,384.72,364.937,384.465Zm88.88,69.5a17.872,17.872,0,0,1-25.243,0l-33.56-33.559a1.267,1.267,0,0,1,0-1.789l23.455-23.455a1.267,1.267,0,0,1,1.788,0l33.56,33.56A17.871,17.871,0,0,1,453.817,453.967Z"></path></g></svg>