<svg xmlns="http://www.w3.org/2000/svg" viewBox="0 0 512 512" id="sword"><path fill="#e1e1e3" d="M349,288.56l-21.23,21.28-38.23-38.32-26-26.09-15-15-25.14-25.2L98.45,80l9.62-55a15,15,0,0,1,12.61,5l128.7,145.72,25.2,28.53,14.05,15.91,25.79,29.21Z"></path><path fill="#c8c5cc" d="M327.75,309.84,306.54,331.1l-42.09-37.34-26.09-23.15-15.88-14.09-24.9-22.09-149-132.17a15,15,0,0,1-5-12.58L98.45,80,223.37,205.23l25.14,25.2,15,15,26,26.09Z"></path><path fill="#aeadb3" d="M108.07,25.06,98.45,80,43.61,89.68l4.25-46.8A15,15,0,0,1,61.43,29.31Z"></path><polygon fill="#a17855" points="425.63 457.74 475.31 407.93 379.85 312.27 330.17 362.09 425.63 457.74"></polygon><path fill="#896848" d="M379.85,312.27l-7.5,7.52,80.91,81.08a10,10,0,0,1,0,14.13l-35.13,35.22,7.5,7.52,49.68-49.81Z"></path><path fill="#f9a242" d="M395.2,296.9l-15.34,15.38-24.56,24.6-.41.42-40,40.1,0,0a15,15,0,0,1-21.21,0l-6.09-6.09a15,15,0,0,1,0-21.19l19-19,21.21-21.26L349,288.56l18.9-18.95,0,0a15,15,0,0,1,21.21,0l6.08,6.1A15,15,0,0,1,395.2,296.9Z"></path><path fill="#f69531" d="M395.2,275.71l-6.08-6.1A15,15,0,0,0,371,267.23a15.36,15.36,0,0,1,3.12,2.38l6.08,6.1a15,15,0,0,1,0,21.19l-15.34,15.38-24.56,24.6-.41.42-40,40.1,0,0a15.08,15.08,0,0,1-3.09,2.36,15,15,0,0,0,18.09-2.36l0,0,40-40.1.41-.42,24.56-24.6L395.2,296.9A15,15,0,0,0,395.2,275.71Z"></path><path fill="#f9a242" d="M451.6,481.81,499.32,434a17.74,17.74,0,0,0,0-25.06h0a17.64,17.64,0,0,0-24.95-.05l-.05.05L426.6,456.76a17.74,17.74,0,0,0,0,25.05h0a17.64,17.64,0,0,0,25,0Z"></path><path fill="#f69531" d="M499.32,408.92a17.64,17.64,0,0,0-20-3.5,17.47,17.47,0,0,1,5,3.5,17.74,17.74,0,0,1,0,25.06L436.6,481.81l0,0a17.49,17.49,0,0,1-5,3.46,17.64,17.64,0,0,0,20-3.46l0,0L499.32,434A17.74,17.74,0,0,0,499.32,408.92Z"></path><polygon fill="#8b8893" points="274.58 204.31 248.51 230.43 222.48 256.52 197.58 234.43 222.7 204.23 248.71 174.78 274.58 204.31"></polygon><polygon fill="#aeadb3" points="248.51 230.43 222.48 256.52 196.94 232.94 222.73 203.74 248.51 230.43"></polygon><polygon fill="#aeadb3" points="314.42 249.43 289.52 271.52 264.45 293.76 238.36 270.61 263.48 245.43 288.63 220.22 314.42 249.43"></polygon><polygon fill="#8b8893" points="263.48 245.43 288.63 220.22 314.42 249.43 289.52 271.52 263.48 245.43"></polygon><path fill="#e1e1e3" d="M163.4,287.55l21.23,21.28,38.23-38.32,26-26.09,15-15L289,204.22,413.93,79l-9.62-55a15,15,0,0,0-12.6,5L263,174.77,237.8,203.3l-14.05,15.91L198,248.42Z"></path><path fill="#c8c5cc" d="M184.63,308.83l21.21,21.26,42.09-37.34L274,269.6l15.88-14.09,24.9-22.09,149-132.17a15,15,0,0,0,5-12.58L413.93,79,289,204.22l-25.14,25.2-15,15-26,26.09Z"></path><path fill="#aeadb3" d="M404.31,24.05l9.62,55,54.84,9.66-4.25-46.8A15,15,0,0,0,451,28.3Z"></path><polygon fill="#a17855" points="86.76 456.73 37.08 406.92 132.54 311.26 182.22 361.08 86.76 456.73"></polygon><path fill="#896848" d="M132.54,311.26l7.49,7.52L59.12,399.86a10,10,0,0,0,0,14.13l35.14,35.23-7.5,7.51L37.08,406.92Z"></path><path fill="#f9a242" d="M117.18,295.89l15.34,15.38,24.56,24.6.41.42,40,40.1,0,0a15,15,0,0,0,21.21,0l6.09-6.09a15,15,0,0,0,0-21.19l-19-19-21.21-21.26L163.4,287.55,144.5,268.6l0,0a15,15,0,0,0-21.22,0l-6.08,6.1A15,15,0,0,0,117.18,295.89Z"></path><path fill="#f69531" d="M117.18,274.7l6.08-6.1a15,15,0,0,1,18.12-2.38,15.64,15.64,0,0,0-3.12,2.38l-6.08,6.1a15,15,0,0,0,0,21.19l15.34,15.38,24.56,24.6.41.42,40,40.1,0,0a15.41,15.41,0,0,0,3.1,2.36,15,15,0,0,1-18.1-2.36l0,0-40-40.1-.41-.42-24.56-24.6-15.34-15.38A15,15,0,0,1,117.18,274.7Z"></path><path fill="#f9a242" d="M60.79,480.8,13.07,433a17.74,17.74,0,0,1,0-25.06h0A17.64,17.64,0,0,1,38,407.86l.06.05,47.72,47.84a17.74,17.74,0,0,1,0,25.05h0a17.64,17.64,0,0,1-25,0Z"></path><path fill="#f69531" d="M13.07,407.91a17.64,17.64,0,0,1,20-3.5,17.7,17.7,0,0,0-5,28.56L75.79,480.8l0,0a17.35,17.35,0,0,0,5,3.46,17.63,17.63,0,0,1-20-3.46l0,0L13.07,433A17.74,17.74,0,0,1,13.07,407.91Z"></path><path d="M504.63,403.63a24.93,24.93,0,0,0-17.76-7.4h-.05a25,25,0,0,0-10.37,2.23l-86-86.18,10.06-10.08a22.54,22.54,0,0,0,0-31.78l-6.08-6.11a22.53,22.53,0,0,0-31.82,0l0,0,0,0L349.31,277.6l-31.74-35.94L468.36,107.88a22.59,22.59,0,0,0,7.53-18.4.22.22,0,0,0,0-.08c0-.13,0-.26,0-.4l-4.25-46.8a22.5,22.5,0,0,0-20.36-20.36l-46.63-4.25-.36,0h-.12A22.56,22.56,0,0,0,385.7,25.1L256,172,126.3,25.09a22.58,22.58,0,0,0-18.44-7.53h-.1l-.37,0L60.75,21.84A22.5,22.5,0,0,0,40.39,42.2L36.14,89c0,.13,0,.26,0,.4a.17.17,0,0,0,0,.07,22.55,22.55,0,0,0,7.52,18.39l150.8,133.79L162.69,277.6l-13.26-13.29,0,0,0,0a22.52,22.52,0,0,0-31.82.05l-6.08,6.09a22.55,22.55,0,0,0,0,31.79l10.06,10.08-86,86.18a25,25,0,0,0-10.37-2.23h-.05a25,25,0,0,0-17.76,7.39,25.28,25.28,0,0,0,0,35.66l47.72,47.83,0,0,0,0a25.17,25.17,0,0,0,35.56-.05,25.31,25.31,0,0,0,5.12-28.23l86-86.18,9.94,10,.06.06a22.54,22.54,0,0,0,31.81,0l6.1-6.1a22.54,22.54,0,0,0,0-31.78l-13.36-13.4L256,296.29l39.61,35.14-13.36,13.39a22.55,22.55,0,0,0,0,31.8l6.08,6.08a22.54,22.54,0,0,0,31.82,0l.06-.06,9.94-10,86,86.18a25.19,25.19,0,0,0,22.93,35.61,25,25,0,0,0,17.75-7.33l0,0h0l47.72-47.83A25.27,25.27,0,0,0,504.63,403.63ZM338.7,288.25l-10.95,11L292.51,263.9l13.84-12.28ZM449.89,36.78a7.49,7.49,0,0,1,6.78,6.78l3.37,37-40-7-7-40.13ZM114.1,34.13a8.13,8.13,0,0,1,1,.9L246,183.28l-15.92,18L106.51,77.48ZM55.33,43.57a7.49,7.49,0,0,1,6.78-6.79L99,33.42,92,73.55l-40,7ZM53.58,96.65a7.13,7.13,0,0,1-.88-1l43.2-7.61L220.12,212.58l-15.76,17.84ZM396.94,35a8.18,8.18,0,0,1,1-.9l7.59,43.35L184.25,299.22l-10.95-11ZM80.09,476.52a10.16,10.16,0,0,1-14.35,0l0,0L18,428.68A10.2,10.2,0,0,1,32.35,414.2l0,0,47.7,47.83A10.27,10.27,0,0,1,80.09,476.52Zm6.29-29.4L47.29,407.93l84.85-85,39.1,39.18Zm132.75-91.7a7.51,7.51,0,0,1,0,10.59L213,372.1a7.51,7.51,0,0,1-10.58,0l0,0-64.84-65-.14-.16-.15-.13L122.11,291.6a7.51,7.51,0,0,1,0-10.59l6.08-6.1a7.51,7.51,0,0,1,10.61,0v0l18.43,18.47c.14.17.29.34.45.5l42.46,42.52,0,.05ZM205.78,320.8l-10.93-11L416.1,88.09l43.2,7.61a7.26,7.26,0,0,1-.89,1Zm61.52-34.54,14-12.39,35.88,36-10.93,11Zm42.27,85.84,0,0a7.52,7.52,0,0,1-10.59,0L292.87,366a7.5,7.5,0,0,1,0-10.59l18.93-19,.05-.05,42.46-42.52c.16-.16.3-.33.45-.5l18.43-18.47h0v0a7.51,7.51,0,0,1,10.61,0l6.08,6.1a7.51,7.51,0,0,1,0,10.59L374.7,306.83l-.15.13-.14.16Zm31.19-10,39.1-39.18,84.85,85-39.09,39.19ZM494,428.68,446.3,476.5l0,.05a10.2,10.2,0,0,1-14.35-14.49l47.71-47.83,0-.05A10.2,10.2,0,0,1,494,428.68Z"></path></svg>